<svg width="35" height="35" viewBox="0 0 35 35" fill="none" xmlns="http://www.w3.org/2000/svg">
<g id="radix-icons:clock">
<path id="Vector" fill-rule="evenodd" clip-rule="evenodd" d="M17.4996 2.04639C13.401 2.04639 9.4703 3.67454 6.57217 6.57266C3.67405 9.47079 2.0459 13.4015 2.0459 17.5001C2.0459 21.5986 3.67405 25.5293 6.57217 28.4274C9.4703 31.3256 13.401 32.9537 17.4996 32.9537C21.5981 32.9537 25.5288 31.3256 28.427 28.4274C31.3251 25.5293 32.9532 21.5986 32.9532 17.5001C32.9532 13.4015 31.3251 9.47079 28.427 6.57266C25.5288 3.67454 21.5981 2.04639 17.4996 2.04639ZM4.26257 17.5001C4.26257 13.9894 5.65717 10.6225 8.13959 8.14008C10.622 5.65766 13.9889 4.26305 17.4996 4.26305C21.0102 4.26305 24.3771 5.65766 26.8595 8.14008C29.342 10.6225 30.7366 13.9894 30.7366 17.5001C30.7366 21.0107 29.342 24.3776 26.8595 26.86C24.3771 29.3424 21.0102 30.7371 17.4996 30.7371C13.9889 30.7371 10.622 29.3424 8.13959 26.86C5.65717 24.3776 4.26257 21.0107 4.26257 17.5001ZM18.6662 10.5001C18.6662 10.1906 18.5433 9.89389 18.3245 9.6751C18.1057 9.4563 17.809 9.33339 17.4996 9.33339C17.1901 9.33339 16.8934 9.4563 16.6746 9.6751C16.4558 9.89389 16.3329 10.1906 16.3329 10.5001V17.5001C16.3326 17.6534 16.3626 17.8052 16.421 17.947C16.4795 18.0887 16.5653 18.2175 16.6736 18.3261L21.3402 22.9927C21.5593 23.2118 21.8564 23.3349 22.1662 23.3349C22.476 23.3349 22.7732 23.2118 22.9922 22.9927C23.2113 22.7737 23.3344 22.4765 23.3344 22.1667C23.3344 21.8569 23.2113 21.5598 22.9922 21.3407L18.6662 17.0171V10.5001Z" fill="#002D72"/>
</g>
</svg>
