<svg width="41" height="39" viewBox="0 0 41 39" fill="none" xmlns="http://www.w3.org/2000/svg">
<g id="ph:facebook-logo-light">
<path id="Vector" d="M36.8359 19.5C36.8359 16.4267 35.8779 13.4224 34.0828 10.867C32.2878 8.31158 29.7365 6.3199 26.7515 5.14378C23.7665 3.96767 20.4819 3.65995 17.313 4.25952C14.1442 4.8591 11.2334 6.33905 8.94875 8.51223C6.66413 10.6854 5.10829 13.4542 4.47796 16.4685C3.84763 19.4828 4.17114 22.6072 5.40757 25.4465C6.644 28.2859 8.73782 30.7128 11.4242 32.4203C14.1107 34.1277 17.2691 35.0391 20.5 35.0391C24.8313 35.035 28.9839 33.3966 32.0466 30.4833C35.1092 27.5701 36.8317 23.62 36.8359 19.5ZM21.4609 33.1805V22.8516H25.625C25.8799 22.8516 26.1243 22.7553 26.3045 22.5838C26.4847 22.4124 26.5859 22.1799 26.5859 21.9375C26.5859 21.6951 26.4847 21.4626 26.3045 21.2912C26.1243 21.1197 25.8799 21.0234 25.625 21.0234H21.4609V17.0625C21.4652 16.3365 21.7702 15.6413 22.3099 15.1279C22.8497 14.6145 23.5805 14.3243 24.3438 14.3203H26.9063C27.1611 14.3203 27.4055 14.224 27.5857 14.0526C27.766 13.8812 27.8672 13.6487 27.8672 13.4063C27.8672 13.1638 27.766 12.9313 27.5857 12.7599C27.4055 12.5885 27.1611 12.4922 26.9063 12.4922H24.3438C23.0708 12.4962 21.8511 12.979 20.951 13.8352C20.0509 14.6915 19.5433 15.8516 19.5391 17.0625V21.0234H15.375C15.1202 21.0234 14.8757 21.1197 14.6955 21.2912C14.5153 21.4626 14.4141 21.6951 14.4141 21.9375C14.4141 22.1799 14.5153 22.4124 14.6955 22.5838C14.8757 22.7553 15.1202 22.8516 15.375 22.8516H19.5391V33.1805C15.8078 32.9433 12.3194 31.3361 9.8107 28.6981C7.30197 26.0601 5.96924 22.598 6.09396 19.0428C6.21869 15.4875 7.7911 12.1176 10.4791 9.6446C13.1672 7.17158 16.7604 5.7891 20.5 5.7891C24.2396 5.7891 27.8328 7.17158 30.5209 9.6446C33.2089 12.1176 34.7813 15.4875 34.9061 19.0428C35.0308 22.598 33.698 26.0601 31.1893 28.6981C28.6806 31.3361 25.1922 32.9433 21.4609 33.1805Z" fill="#002D72"/>
</g>
</svg>
