<svg width="41" height="39" viewBox="0 0 41 39" fill="none" xmlns="http://www.w3.org/2000/svg">
<g id="ph:instagram-logo-light">
<path id="Vector" d="M20.5 12.4922C19.0429 12.4922 17.6185 12.9032 16.407 13.6732C15.1955 14.4432 14.2512 15.5377 13.6936 16.8182C13.136 18.0987 12.9901 19.5078 13.2744 20.8672C13.5586 22.2265 14.2603 23.4752 15.2906 24.4553C16.3209 25.4353 17.6336 26.1028 19.0627 26.3732C20.4918 26.6436 21.9731 26.5048 23.3193 25.9744C24.6655 25.444 25.8161 24.5458 26.6256 23.3933C27.4351 22.2409 27.8672 20.886 27.8672 19.5C27.8672 17.6414 27.091 15.8589 25.7094 14.5447C24.3278 13.2305 22.4539 12.4922 20.5 12.4922ZM20.5 24.6797C19.423 24.6797 18.3702 24.3759 17.4747 23.8068C16.5793 23.2376 15.8813 22.4286 15.4692 21.4822C15.057 20.5357 14.9492 19.4943 15.1593 18.4895C15.3694 17.4847 15.888 16.5618 16.6496 15.8374C17.4111 15.113 18.3814 14.6197 19.4377 14.4198C20.494 14.22 21.5888 14.3226 22.5838 14.7146C23.5788 15.1066 24.4293 15.7705 25.0276 16.6223C25.626 17.4741 25.9453 18.4756 25.9453 19.5C25.9411 20.8725 25.366 22.1876 24.3457 23.1582C23.3255 24.1287 21.9429 24.6757 20.5 24.6797ZM27.5469 4.57031H13.4531C11.1594 4.57031 8.95965 5.43704 7.33776 6.97982C5.71586 8.5226 4.80469 10.6151 4.80469 12.7969V26.2031C4.80469 28.3849 5.71586 30.4774 7.33776 32.0202C8.95965 33.563 11.1594 34.4297 13.4531 34.4297H27.5469C29.8406 34.4297 32.0403 33.563 33.6622 32.0202C35.2841 30.4774 36.1953 28.3849 36.1953 26.2031V12.7969C36.1953 10.6151 35.2841 8.5226 33.6622 6.97982C32.0403 5.43704 29.8406 4.57031 27.5469 4.57031ZM34.2734 26.2031C34.2734 27.9001 33.5647 29.5276 32.3033 30.7275C31.0418 31.9274 29.3309 32.6016 27.5469 32.6016H13.4531C11.6691 32.6016 9.9582 31.9274 8.69673 30.7275C7.43525 29.5276 6.72656 27.9001 6.72656 26.2031V12.7969C6.72656 11.0999 7.43525 9.47244 8.69673 8.2725C9.9582 7.07256 11.6691 6.39844 13.4531 6.39844H27.5469C29.3309 6.39844 31.0418 7.07256 32.3033 8.2725C33.5647 9.47244 34.2734 11.0999 34.2734 12.7969V26.2031ZM30.4297 11.5781C30.4297 11.8794 30.3358 12.174 30.1598 12.4245C29.9838 12.675 29.7337 12.8703 29.441 12.9856C29.1484 13.1009 28.8263 13.1311 28.5157 13.0723C28.205 13.0135 27.9196 12.8684 27.6956 12.6554C27.4717 12.4423 27.3191 12.1709 27.2573 11.8753C27.1955 11.5798 27.2273 11.2735 27.3485 10.9951C27.4697 10.7168 27.675 10.4788 27.9383 10.3114C28.2017 10.144 28.5114 10.0547 28.8281 10.0547C29.2529 10.0547 29.6603 10.2152 29.9606 10.5009C30.261 10.7866 30.4297 11.1741 30.4297 11.5781Z" fill="#002D72"/>
</g>
</svg>
