<svg width="40" height="40" viewBox="0 0 40 40" fill="none" xmlns="http://www.w3.org/2000/svg">
<g id="tabler:mail-heart">
<g id="Group">
<path id="Vector" d="M17.5 31.6667H8.33333C7.44928 31.6667 6.60143 31.3155 5.97631 30.6904C5.35119 30.0653 5 29.2174 5 28.3334V11.6667C5 10.7827 5.35119 9.93481 5.97631 9.30968C6.60143 8.68456 7.44928 8.33337 8.33333 8.33337H31.6667C32.5507 8.33337 33.3986 8.68456 34.0237 9.30968C34.6488 9.93481 35 10.7827 35 11.6667V18.3334" stroke="#002D72" stroke-width="2" stroke-linecap="round" stroke-linejoin="round"/>
<path id="Vector_2" d="M5 11.6667L20 21.6667L24.9717 18.3517L35 11.6667M30 36.6667L35.5833 31.1934C35.9257 30.8612 36.1981 30.4637 36.3843 30.0244C36.5706 29.5852 36.6669 29.1131 36.6677 28.636C36.6685 28.1589 36.5737 27.6865 36.3888 27.2467C36.204 26.8068 35.933 26.4084 35.5917 26.0751C34.8952 25.394 33.9603 25.0118 32.9862 25.0099C32.0121 25.008 31.0757 25.3867 30.3767 26.0651L30.0033 26.4317L29.6317 26.0651C28.9353 25.3845 28.0008 25.0026 27.027 25.0007C26.0533 24.9988 25.1173 25.3772 24.4183 26.0551C24.0758 26.3872 23.8034 26.7846 23.617 27.2238C23.4306 27.663 23.3341 28.135 23.3331 28.6121C23.3322 29.0892 23.4269 29.5617 23.6115 30.0016C23.7962 30.4415 24.0671 30.8399 24.4083 31.1734L30 36.6667Z" stroke="#002D72" stroke-width="2" stroke-linecap="round" stroke-linejoin="round"/>
</g>
</g>
</svg>
