<svg width="37" height="33" viewBox="0 0 37 33" fill="none" xmlns="http://www.w3.org/2000/svg">
<path id="Vector" d="M36.0225 0.617257C35.6426 0.308319 35.1846 0.105998 34.697 0.0317447C34.2094 -0.0425089 33.7104 0.0140721 33.2529 0.195489L1.68526 12.6981C1.17514 12.9038 0.740846 13.2568 0.440024 13.7103C0.139202 14.1638 -0.0139164 14.6963 0.000994126 15.2372C0.0159047 15.7781 0.198139 16.3017 0.523506 16.7386C0.848873 17.1755 1.30198 17.505 1.82268 17.6833L8.63411 20.003L12.3253 31.975C12.3323 31.9992 12.3552 32.0147 12.3658 32.0372C12.4038 32.1327 12.4593 32.2206 12.5296 32.2965C12.6364 32.4135 12.7743 32.4991 12.9278 32.5437C12.9454 32.5506 12.9578 32.5661 12.9754 32.5696H12.986L12.9912 32.5713C13.1275 32.6001 13.2692 32.5929 13.4018 32.5506C13.4159 32.5471 13.4299 32.5471 13.4458 32.5419C13.5731 32.4981 13.6883 32.4259 13.7823 32.331C13.7929 32.3189 13.8105 32.3172 13.8211 32.3068L19.1296 26.5577L26.8766 32.4434C27.347 32.8047 27.9267 33 28.524 33C29.8172 33 30.9325 32.1115 31.1985 30.8721L36.9458 3.18416C37.0433 2.71412 37.0089 2.22694 36.8463 1.77457C36.6837 1.3222 36.399 0.921609 36.0225 0.615528V0.617257ZM14.251 22.276L13.0053 28.2171L10.4066 19.7852L23.2947 13.1994L14.4906 21.8387C14.3687 21.9582 14.2853 22.1103 14.251 22.276ZM29.4719 30.5247C29.4388 30.6815 29.3652 30.8272 29.2581 30.948C29.1511 31.0688 29.0141 31.1605 28.8605 31.2144C28.7106 31.271 28.5483 31.2883 28.3895 31.2647C28.2307 31.241 28.0809 31.1772 27.9549 31.0796L19.5631 24.7029C19.3876 24.5701 19.1676 24.507 18.9469 24.5262C18.7261 24.5454 18.5209 24.6456 18.372 24.8067L14.6774 28.8013L15.9213 22.8776L28.5874 10.4493C28.7357 10.3033 28.826 10.1101 28.8419 9.9045C28.8578 9.69895 28.7982 9.49459 28.6741 9.32831C28.5499 9.16203 28.3692 9.04477 28.1646 8.9977C27.96 8.95063 27.7451 8.97685 27.5585 9.07162L9.3001 18.4024L2.39882 16.0481C2.21584 15.9888 2.05624 15.875 1.94225 15.7226C1.82825 15.5702 1.76552 15.3867 1.76278 15.1976C1.754 15.0069 1.80594 14.8182 1.91138 14.6578C2.01683 14.4974 2.17056 14.3731 2.35125 14.3022L33.9136 1.79959C34.0753 1.73217 34.253 1.71036 34.4267 1.73663C34.6004 1.76289 34.7632 1.83618 34.8967 1.94824C35.0295 2.05366 35.1298 2.19322 35.1864 2.35134C35.243 2.50945 35.2538 2.67989 35.2174 2.84364L29.4719 30.5264V30.5247Z" fill="#002D72"/>
</svg>
