<svg width="44" height="45" viewBox="0 0 44 45" fill="none" xmlns="http://www.w3.org/2000/svg">
<g id="la:viber">
<path id="Vector" d="M21.5874 5.625C18.9749 5.625 12.5124 5.90625 9.07489 9.28125C6.59989 11.6719 5.63739 15.3281 5.49989 19.6875C5.22489 26.5781 6.73739 30.9375 9.21239 33.1875C9.76239 33.6094 11.1374 34.7344 13.7499 35.5781V39.0938C13.7499 39.0938 13.7499 40.5 14.5749 40.7812C14.7124 40.7812 14.8499 40.9219 14.9874 40.9219C15.8124 40.9219 16.4999 39.9375 17.4624 38.9531C18.2874 37.9688 18.9749 37.2656 19.3874 36.5625H22.4124C25.0249 36.5625 31.4874 36.2812 34.9249 32.9062C37.3999 30.375 38.3624 26.7188 38.3624 22.0781C38.4999 21.375 38.4999 20.5312 38.4999 19.6875C38.3624 14.4844 36.8499 10.9688 34.7874 9C33.9624 8.29688 30.3874 5.625 22.6874 5.625H21.5874ZM21.3124 8.29688H22.5499C29.8374 8.29688 32.5874 10.6875 32.8624 10.9688C34.5124 12.375 35.4749 15.4687 35.6124 19.5469V20.1094C35.7499 20.9531 35.7499 21.6562 35.7499 22.0781C35.6124 26.2969 34.7874 29.1094 33.1374 30.9375C30.2499 33.6094 24.1999 33.75 22.5499 33.75H19.9374L17.7374 36.2812L16.3624 37.8281L16.0874 38.25C15.8124 38.5312 15.3999 39.0938 15.1249 39.2344V32.9062C12.3749 32.2031 11.2749 31.2188 10.9999 30.9375C9.07489 29.25 7.97489 25.1719 8.24989 19.6875V18.2812C8.52489 14.9062 9.34989 12.6562 10.7249 11.1094C13.6124 8.4375 19.6624 8.29688 21.3124 8.29688ZM21.1749 11.3906C20.4874 11.3906 20.4874 12.375 21.1749 12.375C26.2624 12.375 30.6624 15.8906 30.6624 22.5C30.6624 23.2031 31.6249 23.2031 31.6249 22.5C31.6249 15.3281 26.9499 11.25 21.1749 11.3906ZM15.7258 12.6914C15.4142 12.6532 15.1004 12.741 14.8513 12.9361C13.4763 13.6392 12.0999 15.0483 12.5124 16.5952C12.5124 16.5952 12.7874 17.8594 14.2999 20.5313C15.1249 21.7969 15.8124 22.9219 16.4999 23.7656C17.1874 24.75 18.2874 25.875 19.3874 26.7188C21.5874 28.5469 25.0249 30.375 26.5374 30.7969C27.9124 31.2188 29.4249 29.8125 30.1124 28.4063C30.3874 27.8438 30.2499 27.1406 29.6999 26.7188C28.8749 25.875 27.4999 24.8906 26.5374 24.3281C25.8499 23.9062 25.0249 24.1875 24.7499 24.6094L24.0624 25.4531C23.7874 25.875 23.0999 25.875 23.0999 25.875C18.5624 24.6094 17.3249 19.8281 17.3249 19.8281C17.3249 19.8281 17.3249 19.2656 17.7374 18.8437L18.5624 18.1406C18.9749 17.8594 19.2499 17.0156 18.8374 16.3125C18.5624 15.8906 18.1499 15.0469 17.7374 14.625C17.3249 14.0625 16.4999 13.0781 16.4999 13.0781C16.2913 12.8645 16.0188 12.7283 15.7258 12.6914ZM22.1374 14.2031C21.4499 14.0625 21.3124 15.1875 21.9999 15.1875C25.8499 15.4688 28.0499 18.1406 27.9124 21.5156C27.7749 22.2188 28.8749 22.2188 28.8749 21.5156C29.0124 17.5781 26.5374 14.3438 22.1374 14.2031ZM22.5499 16.875C21.8624 16.7344 21.8624 17.8594 22.5499 17.8594C24.1999 17.8594 25.0249 18.8438 25.0249 20.5313C25.1624 21.2344 26.1249 21.2344 26.1249 20.5313C25.9874 18.2813 24.7499 16.875 22.5499 16.875Z" fill="#002D72"/>
</g>
</svg>
