<svg width="32" height="32" viewBox="0 0 32 32" fill="none" xmlns="http://www.w3.org/2000/svg">
<path id="Vector" d="M15.9964 6.78488e-07C13.2065 0.000455475 10.4653 0.730462 8.04471 2.11758C5.62411 3.5047 3.60827 5.50071 2.19724 7.90755C0.786203 10.3144 0.029018 13.0484 0.00081759 15.8383C-0.0273828 18.6281 0.674382 21.3769 2.03648 23.8118L0.656174 28.6274C0.54346 29.0043 0.534809 29.4047 0.631137 29.7861C0.727465 30.1676 0.925183 30.5158 1.20334 30.794C1.48149 31.0721 1.82972 31.2699 2.21111 31.3662C2.5925 31.4625 2.99285 31.4539 3.36973 31.3412L8.1851 29.9608C10.3188 31.1555 12.6979 31.8451 15.1397 31.9768C17.5814 32.1085 20.0209 31.6786 22.2707 30.7203C24.5204 29.762 26.5205 28.3006 28.1174 26.4486C29.7143 24.5966 30.8655 22.4031 31.4824 20.0368C32.0994 17.6704 32.1657 15.1941 31.6764 12.7981C31.187 10.4021 30.155 8.1501 28.6595 6.21522C27.1641 4.28034 25.2451 2.71401 23.0498 1.63658C20.8546 0.559154 18.4417 -0.000711444 15.9964 6.78488e-07ZM15.9964 30.1176C13.4626 30.1169 10.9758 29.4342 8.79683 28.1412C8.64704 28.0612 8.48034 28.0182 8.31059 28.0157C8.22571 28.0106 8.14063 28.0212 8.05962 28.0471L2.85211 29.5373C2.79761 29.554 2.73956 29.5556 2.68421 29.5419C2.62885 29.5282 2.5783 29.4996 2.53797 29.4593C2.49764 29.4189 2.46907 29.3684 2.45533 29.313C2.44159 29.2577 2.4432 29.1996 2.45998 29.1451L3.95008 23.9373C3.98526 23.8144 3.99506 23.6857 3.97888 23.5589C3.9627 23.4322 3.92088 23.3101 3.85597 23.2C2.26748 20.5207 1.60964 17.3912 1.98493 14.299C2.36022 11.2068 3.74756 8.32551 5.93086 6.104C8.11415 3.88248 10.9708 2.44544 14.0558 2.01672C17.1409 1.58799 20.2811 2.19166 22.9873 3.73368C25.6936 5.27571 27.8139 7.66951 29.018 10.5422C30.2221 13.4149 30.4424 16.6052 29.6446 19.6162C28.8468 22.6272 27.0756 25.2897 24.6071 27.1891C22.1385 29.0886 19.1111 30.1182 15.9964 30.1176ZM24.0743 18.6353L20.8588 16.8C20.5203 16.6091 20.1373 16.5114 19.7488 16.5169C19.3602 16.5224 18.9801 16.6309 18.6472 16.8314L16.6395 18.0392C15.4984 17.432 14.5645 16.498 13.9573 15.3569L15.165 13.349C15.3655 13.0161 15.474 12.6359 15.4795 12.2474C15.485 11.8588 15.3873 11.4757 15.1964 11.1373L13.3612 7.92157C13.1831 7.61291 12.9271 7.35634 12.6188 7.17744C12.3106 6.99855 11.9609 6.90356 11.6045 6.90196C10.1928 6.90195 8.83871 7.4617 7.83903 8.45851C6.83935 9.45531 6.27565 10.8078 6.2715 12.2196C6.26944 13.9925 6.61683 15.7484 7.29381 17.3869C7.97079 19.0254 8.96408 20.5144 10.2169 21.7688C11.4697 23.0231 12.9574 24.0182 14.5951 24.6971C16.2327 25.376 17.9881 25.7255 19.7608 25.7255H19.7765C21.1882 25.7213 22.5406 25.1576 23.5374 24.1579C24.5341 23.1581 25.0938 21.8039 25.0938 20.3922C25.0922 20.0358 24.9972 19.686 24.8184 19.3777C24.6395 19.0695 24.3829 18.8135 24.0743 18.6353ZM19.7765 23.8431H19.7608C16.681 23.839 13.7287 22.6125 11.5524 20.4331C9.37612 18.2538 8.15373 15.2996 8.15373 12.2196C8.15788 11.3071 8.52327 10.4333 9.16996 9.78953C9.81666 9.14573 10.692 8.7843 11.6045 8.78431C11.6528 8.78828 11.6978 8.81075 11.73 8.84706L13.5652 12.0627C13.5903 12.1118 13.6022 12.1666 13.5994 12.2217C13.5966 12.2768 13.5794 12.3302 13.5495 12.3765L12.0907 14.8392C12.0081 14.966 11.9591 15.1116 11.9481 15.2625C11.9371 15.4134 11.9646 15.5646 12.028 15.702C12.8855 17.5947 14.4018 19.1111 16.2944 19.9686C16.4317 20.032 16.5829 20.0595 16.7338 20.0485C16.8847 20.0376 17.0303 19.9885 17.1571 19.9059L19.6197 18.4471C19.666 18.4171 19.7193 18.3999 19.7744 18.3971C19.8295 18.3944 19.8843 18.4062 19.9334 18.4314L23.1488 20.2667C23.1852 20.2988 23.2076 20.3438 23.2116 20.3922C23.2116 21.3047 22.8502 22.1801 22.2064 22.8268C21.5627 23.4736 20.689 23.839 19.7765 23.8431Z" fill="#002D72"/>
</svg>
